<?xml version="1.0" standalone="no"?>
<!DOCTYPE svg PUBLIC "-//W3C//DTD SVG 20010904//EN"
 "http://www.w3.org/TR/2001/REC-SVG-20010904/DTD/svg10.dtd">
<svg version="1.0" xmlns="http://www.w3.org/2000/svg"
 width="900.000000pt" height="900.000000pt" viewBox="0 0 900.000000 900.000000"
 preserveAspectRatio="xMidYMid meet">
<metadata>
Created by potrace 1.14, written by Peter Selinger 2001-2017
</metadata>
<g transform="translate(0.000000,900.000000) scale(0.100000,-0.100000)"
fill="#000000" stroke="none">
<path d="M0 6060 l0 -2930 38 -2 c95 -4 134 9 124 44 -3 11 1 18 10 18 24 0
79 31 73 41 -4 5 -25 9 -48 9 -31 0 -38 3 -27 10 8 5 22 7 30 5 8 -2 22 0 30
5 12 8 11 10 -7 10 -13 0 -23 5 -23 10 0 6 9 10 20 10 11 0 20 5 20 10 0 6 18
10 40 10 22 0 40 4 40 10 0 5 -7 7 -15 4 -8 -4 -22 -3 -31 0 -13 5 -14 9 -4
21 9 11 17 12 31 4 13 -6 19 -6 19 1 0 5 18 10 40 10 22 0 40 5 40 10 0 6 17
10 38 10 45 0 60 9 58 35 0 11 4 20 9 20 6 0 10 -10 10 -22 -1 -16 6 -22 26
-25 26 -4 27 -3 14 15 -21 30 -2 56 45 63 22 4 40 10 40 15 0 5 20 9 44 9 25
0 48 5 51 10 3 6 15 10 25 10 10 0 22 10 27 23 6 19 8 17 13 -18 l6 -40 28 58
c22 47 31 57 47 52 10 -3 28 -1 39 5 17 9 20 17 15 41 -7 33 2 40 57 42 26 2
33 6 33 22 0 16 -6 20 -32 19 -18 0 -33 3 -33 8 0 4 33 8 73 8 41 0 78 5 84
11 9 9 41 8 127 -1 113 -13 157 -30 76 -30 -22 0 -40 -4 -40 -10 0 -5 -18 -10
-39 -10 -31 0 -41 5 -46 19 -7 24 -43 37 -58 22 -6 -6 -32 -11 -59 -11 -38 0
-46 -3 -42 -15 5 -11 22 -15 65 -15 33 0 59 -4 59 -10 0 -5 -9 -10 -20 -10
-11 0 -20 -7 -20 -15 0 -11 -11 -15 -40 -15 -22 0 -40 -3 -40 -8 0 -4 36 -7
80 -7 58 0 80 3 80 12 0 8 14 13 40 13 32 0 40 4 40 19 0 16 11 19 70 25 39 4
79 5 89 1 10 -3 29 -1 42 4 23 9 23 10 -7 10 -38 1 -55 19 -47 50 6 22 4 23
-20 17 -14 -3 -28 -2 -31 3 -5 7 44 17 143 27 19 2 39 8 45 14 15 15 36 12 36
-5 0 -15 -34 -28 -66 -25 -11 1 -36 2 -56 1 -31 -1 -38 -5 -38 -22 0 -19 4
-20 93 -13 79 5 95 4 106 -10 7 -9 22 -16 32 -16 25 0 24 30 -1 37 -20 5 -28
23 -10 23 5 0 7 7 4 15 -8 20 5 19 30 -4 15 -13 31 -17 59 -14 20 3 37 9 37
14 0 5 -16 7 -35 4 -19 -2 -35 0 -35 5 0 14 31 28 51 23 15 -4 19 0 19 20 0
14 7 28 15 31 9 3 15 14 13 23 -2 13 5 19 25 21 15 2 27 8 27 13 0 5 18 9 41
9 24 0 38 -4 34 -10 -7 -11 37 -12 75 -1 19 6 10 9 -39 14 -35 4 -82 7 -105 8
l-41 1 45 11 45 11 -45 6 c-44 5 -43 6 28 13 63 7 77 6 93 -9 21 -19 24 -18
33 14 6 18 3 22 -13 22 -12 0 -21 7 -21 15 0 8 5 15 11 15 5 0 7 -4 4 -10 -3
-6 5 -10 19 -10 14 0 30 -8 35 -17 6 -10 11 -12 11 -5 0 7 15 12 40 12 22 0
40 5 40 10 0 6 -22 10 -50 10 -28 0 -50 5 -50 11 0 13 203 3 231 -12 15 -7 23
-6 36 6 8 9 22 14 31 10 8 -3 21 0 28 6 10 8 14 8 14 0 0 -6 17 -11 40 -11 22
0 40 5 40 10 0 12 47 13 54 1 7 -11 99 -1 107 12 5 6 47 5 123 -3 116 -13 153
-29 74 -31 l-43 -2 44 -7 c24 -4 61 -6 83 -5 26 1 38 -2 38 -12 0 -15 58 -17
100 -3 25 8 25 8 -4 9 -22 1 -27 4 -19 12 6 6 9 18 6 25 -6 17 32 20 43 3 3
-6 17 -8 30 -5 24 6 34 -9 12 -17 -7 -2 -10 -7 -7 -11 3 -3 24 3 47 14 29 14
62 20 110 20 37 0 73 5 79 11 6 6 29 10 51 7 51 -4 44 10 -9 18 -21 4 -39 10
-39 14 0 5 -3 17 -6 27 -5 14 -4 15 4 4 8 -11 24 -12 66 -7 31 3 56 3 56 -2 0
-4 9 -8 21 -8 17 0 20 5 15 27 -6 33 18 59 36 41 9 -9 7 -12 -10 -12 -12 0
-22 -4 -22 -10 0 -5 14 -10 30 -10 17 0 30 5 30 11 0 6 9 8 20 4 14 -4 20 -2
18 7 -2 7 4 13 12 13 8 0 14 -6 13 -12 -2 -7 0 -13 5 -13 21 1 30 20 34 70 l3
55 43 2 c36 1 45 -2 51 -20 l8 -22 7 23 c9 28 28 24 37 -9 4 -15 7 2 8 44 1
46 4 66 12 61 6 -3 8 -15 6 -26 -6 -23 19 -36 36 -19 8 8 8 11 -2 11 -7 0 -11
7 -9 16 3 18 61 29 88 18 11 -5 8 -9 -14 -19 l-28 -12 32 -7 c18 -3 36 -4 38
-1 3 3 6 30 6 60 l0 55 37 0 c21 0 39 6 42 12 3 11 9 11 26 1 43 -26 58 -12
52 49 -3 23 15 31 73 33 28 2 59 3 69 4 11 1 17 9 17 25 0 22 5 25 43 29 l42
4 -42 1 c-78 3 -46 22 37 22 l80 0 0 35 0 35 83 1 82 2 -82 10 c-54 6 -83 14
-83 22 0 15 101 27 115 14 5 -5 18 -9 30 -9 19 1 19 1 2 11 -18 10 -18 11 0
25 13 9 54 14 138 15 66 2 101 4 78 6 -57 5 -59 30 -3 27 36 -2 39 0 36 20 -2
11 -1 15 1 9 3 -8 22 -13 48 -13 32 0 46 5 57 21 12 18 23 22 72 21 37 0 62
-5 68 -14 7 -10 8 -9 4 5 -4 12 0 17 12 17 13 0 14 2 4 8 -7 5 -10 16 -6 25 5
13 16 15 70 10 54 -5 67 -3 77 11 11 16 37 18 242 18 454 2 1120 -4 1108 -9
-29 -11 -10 -23 37 -23 28 0 50 5 50 10 0 6 -8 10 -17 11 -11 0 -13 3 -6 6 7
2 23 -3 35 -11 12 -9 34 -17 48 -17 23 -1 23 -2 -5 -9 -16 -4 -24 -8 -17 -9 6
0 12 -10 12 -20 0 -11 5 -23 10 -26 6 -3 10 2 10 12 0 15 7 18 45 15 57 -5 59
-22 3 -24 l-43 -1 45 -6 c40 -5 46 -4 54 17 12 28 26 29 26 2 0 -24 7 -27 73
-33 36 -3 47 -1 44 8 -8 20 42 5 54 -16 7 -13 6 -19 -1 -19 -6 0 -9 -4 -6 -9
3 -5 36 -9 73 -10 162 -5 207 -9 210 -18 2 -6 -7 -8 -22 -6 -14 3 -33 -1 -42
-8 -13 -11 -17 -11 -20 -1 -8 21 -20 13 -17 -11 1 -12 3 -25 3 -29 2 -15 52
-8 57 7 4 8 14 15 23 15 14 0 14 -2 1 -10 -8 -5 -13 -10 -10 -11 3 0 14 -2 25
-4 11 -3 26 3 33 12 10 15 12 15 12 1 0 -8 7 -21 15 -28 20 -16 3 -30 -37 -30
-15 0 -29 -4 -32 -8 -3 -5 9 -6 26 -4 21 3 33 0 40 -11 6 -12 25 -16 79 -15
79 1 92 -7 92 -52 0 -17 3 -26 7 -20 4 7 34 10 76 8 76 -3 70 3 75 -79 2 -23
5 -25 43 -23 22 1 44 -2 47 -8 4 -7 13 -7 24 0 36 19 55 3 55 -47 0 -40 4 -48
27 -58 15 -7 34 -13 42 -14 9 -1 5 -5 -9 -9 -22 -7 -20 -8 15 -9 25 0 35 2 27
8 -11 7 -11 9 0 13 17 7 48 -14 48 -33 0 -11 2 -11 8 -1 6 9 31 12 82 10 l74
-3 0 -60 c1 -50 4 -62 21 -69 18 -8 18 -9 3 -13 -10 -3 -18 -13 -18 -23 0 -17
9 -18 121 -15 66 1 123 5 126 9 10 10 53 7 53 -4 0 -6 6 -10 13 -8 7 2 14 -1
15 -7 1 -5 -19 -13 -45 -16 l-48 -6 46 -1 c46 -2 47 -3 54 -39 5 -27 9 -33 15
-22 13 20 98 24 271 12 58 -5 113 -7 122 -5 16 3 17 170 17 2463 l0 2459
-4500 0 -4500 0 0 -2930z m7727 2348 c-3 -8 -6 -5 -6 6 -1 11 2 17 5 13 3 -3
4 -12 1 -19z m-80 -260 c-3 -8 -6 -5 -6 6 -1 11 2 17 5 13 3 -3 4 -12 1 -19z
m1104 -741 c-10 -9 -11 -8 -5 6 3 10 9 15 12 12 3 -3 0 -11 -7 -18z m-1474
-149 c-3 -8 -6 -5 -6 6 -1 11 2 17 5 13 3 -3 4 -12 1 -19z m0 -190 c-3 -8 -6
-5 -6 6 -1 11 2 17 5 13 3 -3 4 -12 1 -19z m-3 -163 c3 -8 1 -15 -4 -15 -6 0
-10 7 -10 15 0 8 2 15 4 15 2 0 6 -7 10 -15z m-387 -1973 c-1 -14 -7 -17 -26
-13 -25 5 -25 6 -3 9 12 2 22 8 22 13 0 5 2 9 4 9 3 0 4 -8 3 -18z m-2052 -61
c3 -5 1 -12 -5 -16 -5 -3 -10 1 -10 9 0 18 6 21 15 7z m2579 -86 c3 -8 1 -15
-4 -15 -6 0 -10 7 -10 15 0 8 2 15 4 15 2 0 6 -7 10 -15z m-3227 -201 c-3 -3
-12 -4 -19 -1 -8 3 -5 6 6 6 11 1 17 -2 13 -5z m-697 -404 c0 -5 -4 -10 -10
-10 -5 0 -10 5 -10 10 0 6 5 10 10 10 6 0 10 -4 10 -10z m5150 0 c0 -5 -4 -10
-10 -10 -5 0 -10 5 -10 10 0 6 5 10 10 10 6 0 10 -4 10 -10z m-5195 -10 c-8
-13 -55 -13 -75 0 -11 7 -2 10 33 10 30 0 46 -4 42 -10z m5218 -55 c0 -6 -7
-11 -16 -13 -12 -3 -15 1 -11 13 7 17 25 17 27 0z m-6195 -2 c-10 -2 -26 -2
-35 0 -10 3 -2 5 17 5 19 0 27 -2 18 -5z m592 -2 c0 -5 -9 -7 -20 -4 -11 3
-20 7 -20 9 0 2 9 4 20 4 11 0 20 -4 20 -9z m200 -11 c0 -5 -7 -10 -15 -10 -8
0 -15 5 -15 10 0 6 7 10 15 10 8 0 15 -4 15 -10z m-427 -7 c-7 -2 -19 -2 -25
0 -7 3 -2 5 12 5 14 0 19 -2 13 -5z m284 1 c-3 -3 -12 -4 -19 -1 -8 3 -5 6 6
6 11 1 17 -2 13 -5z m-1197 -54 c0 -5 -4 -10 -10 -10 -5 0 -10 5 -10 10 0 6 5
10 10 10 6 0 10 -4 10 -10z m-453 -86 c-3 -3 -12 -4 -19 -1 -8 3 -5 6 6 6 11
1 17 -2 13 -5z m158 -14 c3 -5 -1 -10 -9 -10 -9 0 -16 5 -16 10 0 6 4 10 9 10
6 0 13 -4 16 -10z m-55 -15 c0 -8 -4 -15 -10 -15 -5 0 -7 7 -4 15 4 8 8 15 10
15 2 0 4 -7 4 -15z m-276 -50 c3 -8 1 -15 -4 -15 -6 0 -10 7 -10 15 0 8 2 15
4 15 2 0 6 -7 10 -15z m43 -7 c-3 -8 -6 -5 -6 6 -1 11 2 17 5 13 3 -3 4 -12 1
-19z m269 12 c14 6 26 6 29 0 4 -6 0 -10 -9 -10 -8 0 -16 -6 -19 -12 -3 -10
-9 -10 -30 1 -14 8 -24 18 -21 23 4 6 10 6 16 0 7 -7 19 -7 34 -2z m114 -25
c0 -8 -7 -15 -15 -15 -16 0 -20 12 -8 23 11 12 23 8 23 -8z m-195 -5 c3 -5 -1
-10 -10 -10 -9 0 -13 5 -10 10 3 6 8 10 10 10 2 0 7 -4 10 -10z m-245 -25 c0
-8 -7 -15 -16 -15 -14 0 -14 3 -4 15 7 8 14 15 16 15 2 0 4 -7 4 -15z m-60 -5
c0 -5 -4 -10 -10 -10 -5 0 -10 5 -10 10 0 6 5 10 10 10 6 0 10 -4 10 -10z
m430 -15 c0 -8 -9 -15 -20 -15 -11 0 -20 7 -20 15 0 8 9 15 20 15 11 0 20 -7
20 -15z m-510 -25 c0 -5 -4 -10 -10 -10 -5 0 -10 5 -10 10 0 6 5 10 10 10 6 0
10 -4 10 -10z m167 4 c-3 -3 -12 -4 -19 -1 -8 3 -5 6 6 6 11 1 17 -2 13 -5z
m13 -24 c12 -8 9 -10 -12 -10 -16 0 -28 5 -28 10 0 13 20 13 40 0z m80 -44
c-13 -13 -45 17 -35 34 5 8 12 6 26 -6 13 -12 16 -21 9 -28z m-600 -66 c0 -5
-4 -10 -10 -10 -5 0 -10 5 -10 10 0 6 5 10 10 10 6 0 10 -4 10 -10z m-53 -26
c-3 -3 -12 -4 -19 -1 -8 3 -5 6 6 6 11 1 17 -2 13 -5z m-87 -18 c0 -3 -4 -8
-10 -11 -5 -3 -10 -1 -10 4 0 6 5 11 10 11 6 0 10 -2 10 -4z m-50 -66 c0 -5
-2 -10 -4 -10 -3 0 -8 5 -11 10 -3 6 -1 10 4 10 6 0 11 -4 11 -10z m-326 -85
c-4 -8 -8 -15 -10 -15 -2 0 -4 7 -4 15 0 8 4 15 10 15 5 0 7 -7 4 -15z m180
-21 c24 -9 20 -37 -4 -29 -11 4 -20 2 -20 -4 0 -6 -20 -11 -46 -11 -27 0 -43
4 -39 10 3 6 24 10 46 10 28 0 39 4 39 15 0 17 2 18 24 9z m-156 -55 c-18 -12
-38 -11 -38 1 0 6 9 10 20 10 14 0 20 7 21 23 2 21 2 21 6 -2 3 -13 -1 -27 -9
-32z"/>
<path d="M5233 4923 c9 -2 25 -2 35 0 9 3 1 5 -18 5 -19 0 -27 -2 -17 -5z"/>
<path d="M6648 4923 c17 -2 47 -2 65 0 17 2 3 4 -33 4 -36 0 -50 -2 -32 -4z"/>
<path d="M6658 4893 c12 -2 32 -2 45 0 12 2 2 4 -23 4 -25 0 -35 -2 -22 -4z"/>
<path d="M6940 4830 c-20 -6 -21 -8 -5 -8 11 0 31 4 45 8 20 6 21 8 5 8 -11 0
-31 -4 -45 -8z"/>
<path d="M4903 4803 c9 -2 25 -2 35 0 9 3 1 5 -18 5 -19 0 -27 -2 -17 -5z"/>
<path d="M4558 4653 c7 -3 16 -2 19 1 4 3 -2 6 -13 5 -11 0 -14 -3 -6 -6z"/>
<path d="M7751 4444 c0 -11 3 -14 6 -6 3 7 2 16 -1 19 -3 4 -6 -2 -5 -13z"/>
<path d="M7920 4356 c0 -2 7 -6 15 -10 8 -3 15 -1 15 4 0 6 -7 10 -15 10 -8 0
-15 -2 -15 -4z"/>
<path d="M3728 4243 c7 -3 16 -2 19 1 4 3 -2 6 -13 5 -11 0 -14 -3 -6 -6z"/>
<path d="M3586 4154 c-3 -9 -5 -18 -4 -20 7 -6 88 9 88 17 0 5 -14 6 -31 2
-20 -4 -34 -1 -39 6 -5 9 -9 8 -14 -5z"/>
<path d="M8400 4121 c0 -5 -12 -12 -27 -14 -16 -2 2 -4 38 -3 54 1 63 3 50 13
-19 15 -61 17 -61 4z"/>
<path d="M3509 4098 c30 -7 47 -6 54 1 8 8 -4 11 -43 10 l-55 -1 44 -10z"/>
<path d="M8540 4100 c0 -5 5 -10 10 -10 6 0 10 5 10 10 0 6 -4 10 -10 10 -5 0
-10 -4 -10 -10z"/>
<path d="M8248 4083 c6 -2 18 -2 25 0 6 3 1 5 -13 5 -14 0 -19 -2 -12 -5z"/>
<path d="M8433 4073 c9 -2 23 -2 30 0 6 3 -1 5 -18 5 -16 0 -22 -2 -12 -5z"/>
<path d="M8690 4055 c7 -8 16 -15 21 -15 5 0 9 7 9 15 0 9 -9 15 -21 15 -18 0
-19 -2 -9 -15z"/>
<path d="M8606 4053 c-11 -11 -6 -23 9 -23 8 0 15 4 15 9 0 13 -16 22 -24 14z"/>
<path d="M2236 4031 c-4 -5 3 -7 14 -4 23 6 26 13 6 13 -8 0 -17 -4 -20 -9z"/>
<path d="M8653 4033 c9 -2 23 -2 30 0 6 3 -1 5 -18 5 -16 0 -22 -2 -12 -5z"/>
<path d="M2530 4026 c0 -2 9 -6 20 -9 11 -3 20 -1 20 4 0 5 -9 9 -20 9 -11 0
-20 -2 -20 -4z"/>
<path d="M8720 4020 c0 -5 5 -10 10 -10 6 0 10 5 10 10 0 6 -4 10 -10 10 -5 0
-10 -4 -10 -10z"/>
<path d="M2480 4009 c0 -5 5 -7 10 -4 6 3 10 8 10 11 0 2 -4 4 -10 4 -5 0 -10
-5 -10 -11z"/>
<path d="M2720 4009 c0 -5 5 -7 10 -4 6 3 10 8 10 11 0 2 -4 4 -10 4 -5 0 -10
-5 -10 -11z"/>
<path d="M3095 4010 c-3 -5 1 -10 9 -10 9 0 16 5 16 10 0 6 -4 10 -9 10 -6 0
-13 -4 -16 -10z"/>
<path d="M3245 4010 c-3 -5 -1 -10 4 -10 6 0 11 5 11 10 0 6 -2 10 -4 10 -3 0
-8 -4 -11 -10z"/>
<path d="M8920 4010 c-45 -7 -44 -7 18 -8 36 -1 62 2 62 8 0 11 -11 11 -80 0z"/>
<path d="M2628 3983 c6 -2 12 -11 12 -19 0 -17 56 -19 97 -3 l28 12 -25 7
c-27 9 -133 12 -112 3z"/>
<path d="M2205 3969 c-10 -15 3 -25 16 -12 7 7 7 13 1 17 -6 3 -14 1 -17 -5z"/>
<path d="M2278 3963 c23 -2 42 -8 42 -14 0 -5 19 -8 43 -8 23 1 32 4 20 6 -13
2 -23 9 -23 14 0 5 -28 8 -62 7 -50 -1 -54 -2 -20 -5z"/>
<path d="M1908 3903 c12 -2 32 -2 45 0 12 2 2 4 -23 4 -25 0 -35 -2 -22 -4z"/>
<path d="M2008 3883 c6 -2 18 -2 25 0 6 3 1 5 -13 5 -14 0 -19 -2 -12 -5z"/>
<path d="M1828 3855 c2 -14 6 -25 8 -25 2 0 4 11 4 25 0 14 -4 25 -9 25 -4 0
-6 -11 -3 -25z"/>
<path d="M954 3638 c-3 -4 13 -8 36 -8 23 0 39 4 35 9 -7 12 -64 11 -71 -1z"/>
<path d="M1440 3630 c0 -5 5 -10 11 -10 5 0 7 5 4 10 -3 6 -8 10 -11 10 -2 0
-4 -4 -4 -10z"/>
<path d="M1040 3574 c0 -11 5 -14 16 -10 9 3 21 6 27 6 16 0 -14 20 -30 20 -7
0 -13 -7 -13 -16z"/>
<path d="M1288 3548 c-9 -5 -6 -8 9 -8 12 0 24 4 27 8 7 11 -19 11 -36 0z"/>
<path d="M1020 3540 c0 -5 5 -10 10 -10 6 0 10 5 10 10 0 6 -4 10 -10 10 -5 0
-10 -4 -10 -10z"/>
<path d="M620 3450 c-9 -6 -10 -10 -3 -10 6 0 18 -3 27 -6 11 -4 16 -1 16 10
0 18 -17 21 -40 6z"/>
<path d="M560 3430 c0 -6 7 -10 15 -10 8 0 15 2 15 4 0 2 -7 6 -15 10 -8 3
-15 1 -15 -4z"/>
<path d="M705 3431 c-3 -5 -1 -12 5 -16 5 -3 10 1 10 9 0 18 -6 21 -15 7z"/>
<path d="M620 3400 c20 -13 33 -13 25 0 -3 6 -14 10 -23 10 -15 0 -15 -2 -2
-10z"/>
<path d="M8885 3375 c-5 -2 -22 -6 -37 -9 -27 -6 -28 -9 -28 -67 0 -60 -1 -61
-25 -57 -14 3 -25 2 -25 -1 0 -11 -167 -44 -181 -36 -8 5 -10 4 -5 -3 4 -8 0
-12 -12 -12 -10 0 -22 -3 -26 -7 -4 -5 -13 -8 -19 -8 -7 0 -14 -23 -17 -55
l-5 -55 -185 -6 c-102 -4 -188 -7 -192 -8 -3 0 -7 -29 -7 -62 0 -34 -1 -62 -3
-64 -2 -1 -38 -6 -82 -10 -56 -5 -76 -4 -72 4 8 13 -28 64 -38 54 -3 -3 -6 -1
-6 5 0 7 4 12 8 12 4 0 8 8 9 18 1 15 -8 17 -110 12 -109 -5 -112 -6 -113 -28
-1 -21 2 -23 27 -20 27 4 28 3 14 -12 -9 -10 -13 -25 -9 -34 3 -9 2 -16 -4
-16 -5 0 -13 10 -17 23 -8 21 -8 21 -12 -5 -5 -31 -1 -30 -116 -29 l-69 0 4
-62 3 -62 -203 5 c-163 4 -205 8 -212 20 -5 9 -28 15 -62 17 -96 4 -98 6 -100
71 0 31 -1 64 -2 72 -1 12 -15 15 -66 15 -36 0 -68 5 -72 11 -4 5 -8 38 -9 71
l-2 62 -84 3 -83 3 -2 -30 c-1 -16 -2 -44 -2 -62 -1 -17 -4 -34 -6 -37 -3 -3
-29 -6 -58 -7 -29 -2 -55 -6 -58 -11 -3 -4 -42 -8 -87 -8 -45 0 -87 -4 -94 -8
-7 -4 -13 -36 -15 -72 l-3 -65 -131 -1 c-73 -1 -137 -5 -143 -8 -6 -4 -44 -6
-84 -5 l-72 2 -3 -66 -3 -67 -159 0 -160 0 0 80 0 80 -90 0 -90 0 0 -80 0 -80
-160 0 -160 0 0 -85 0 -85 -62 0 c-35 0 -454 -2 -933 -4 -1419 -8 -2799 -8
-3452 0 l-613 7 0 -1257 0 -1256 4500 0 4500 0 0 1690 0 1690 -52 -1 c-29 0
-57 -2 -63 -4z m-2128 -291 c-3 -3 -12 -4 -19 -1 -8 3 -5 6 6 6 11 1 17 -2 13
-5z m1883 -14 c0 -5 -2 -10 -4 -10 -3 0 -8 5 -11 10 -3 6 -1 10 4 10 6 0 11
-4 11 -10z m90 0 c0 -5 -2 -10 -4 -10 -3 0 -8 5 -11 10 -3 6 -1 10 4 10 6 0
11 -4 11 -10z m-413 -46 c-3 -3 -12 -4 -19 -1 -8 3 -5 6 6 6 11 1 17 -2 13 -5z
m-567 -34 c0 -5 -4 -10 -9 -10 -6 0 -13 5 -16 10 -3 6 1 10 9 10 9 0 16 -4 16
-10z m60 0 c0 -5 -4 -10 -10 -10 -5 0 -10 5 -10 10 0 6 5 10 10 10 6 0 10 -4
10 -10z m100 0 c0 -5 -4 -10 -9 -10 -6 0 -13 5 -16 10 -3 6 1 10 9 10 9 0 16
-4 16 -10z m-63 -42 c-3 -8 -6 -5 -6 6 -1 11 2 17 5 13 3 -3 4 -12 1 -19z m63
12 c0 -5 -7 -10 -15 -10 -8 0 -15 5 -15 10 0 6 7 10 15 10 8 0 15 -4 15 -10z
m-1005 -21 c5 -5 -5 -4 -23 2 -17 6 -32 13 -32 16 0 7 43 -8 55 -18z m-60 1
c3 -6 -1 -7 -9 -4 -18 7 -21 14 -7 14 6 0 13 -4 16 -10z m1098 -5 c4 -8 3 -16
-1 -19 -4 -3 -9 4 -9 15 -2 23 3 25 10 4z m-33 -15 c0 -5 -4 -10 -10 -10 -5 0
-10 5 -10 10 0 6 5 10 10 10 6 0 10 -4 10 -10z m14 -39 c4 -5 -3 -7 -14 -4
-23 6 -26 13 -6 13 8 0 17 -4 20 -9z m-197 -7 c-3 -3 -12 -4 -19 -1 -8 3 -5 6
6 6 11 1 17 -2 13 -5z m-4207 -394 c0 -5 -4 -10 -10 -10 -5 0 -10 5 -10 10 0
6 5 10 10 10 6 0 10 -4 10 -10z m310 -12 c0 -13 -23 -5 -28 10 -2 7 2 10 12 6
9 -3 16 -11 16 -16z m-1170 2 c0 -5 -7 -10 -15 -10 -8 0 -15 5 -15 10 0 6 7
10 15 10 8 0 15 -4 15 -10z m380 0 c0 -5 -4 -10 -10 -10 -5 0 -10 5 -10 10 0
6 5 10 10 10 6 0 10 -4 10 -10z m375 0 c3 -5 1 -10 -4 -10 -6 0 -11 5 -11 10
0 6 2 10 4 10 3 0 8 -4 11 -10z m-3278 -26 c-3 -3 -12 -4 -19 -1 -8 3 -5 6 6
6 11 1 17 -2 13 -5z m623 -4 c0 -5 -9 -10 -21 -10 -11 0 -17 5 -14 10 3 6 13
10 21 10 8 0 14 -4 14 -10z m583 3 c-7 -2 -21 -2 -30 0 -10 3 -4 5 12 5 17 0
24 -2 18 -5z m134 -9 c-3 -3 -12 -4 -19 -1 -8 3 -5 6 6 6 11 1 17 -2 13 -5z
m686 -1 c-7 -2 -21 -2 -30 0 -10 3 -4 5 12 5 17 0 24 -2 18 -5z m752 -3 l30
-8 -30 0 c-16 0 -39 3 -50 8 l-20 9 20 -1 c11 0 34 -4 50 -8z m318 3 c-7 -2
-21 -2 -30 0 -10 3 -4 5 12 5 17 0 24 -2 18 -5z m340 0 c-7 -2 -21 -2 -30 0
-10 3 -4 5 12 5 17 0 24 -2 18 -5z m334 1 c-3 -3 -12 -4 -19 -1 -8 3 -5 6 6 6
11 1 17 -2 13 -5z m-2594 -11 c-7 -2 -19 -2 -25 0 -7 3 -2 5 12 5 14 0 19 -2
13 -5z m780 0 c-7 -2 -19 -2 -25 0 -7 3 -2 5 12 5 14 0 19 -2 13 -5z m540 0
c-7 -2 -21 -2 -30 0 -10 3 -4 5 12 5 17 0 24 -2 18 -5z m154 -36 c3 -4 -10 -7
-31 -7 -20 0 -35 4 -32 8 5 9 53 8 63 -1z"/>
<path d="M640 3280 c0 -5 5 -10 10 -10 6 0 10 5 10 10 0 6 -4 10 -10 10 -5 0
-10 -4 -10 -10z"/>
<path d="M458 3223 c7 -3 16 -2 19 1 4 3 -2 6 -13 5 -11 0 -14 -3 -6 -6z"/>
<path d="M0 3100 c0 -12 24 -12 60 0 21 7 19 8 -17 9 -24 1 -43 -3 -43 -9z"/>
<path d="M0 3029 c0 -27 1 -27 38 -17 56 15 57 23 7 35 l-45 10 0 -28z"/>
<path d="M38 2563 c7 -3 16 -2 19 1 4 3 -2 6 -13 5 -11 0 -14 -3 -6 -6z"/>
<path d="M300 2540 c-13 -8 -12 -10 3 -10 9 0 17 5 17 10 0 12 -1 12 -20 0z"/>
<path d="M27 2533 c18 -2 48 -2 66 0 17 2 3 4 -33 4 -36 0 -50 -2 -33 -4z"/>
<path d="M193 2533 c15 -2 39 -2 55 0 15 2 2 4 -28 4 -30 0 -43 -2 -27 -4z"/>
</g>
</svg>
